<svg width="161" height="41" viewBox="0 0 161 41" fill="none" xmlns="http://www.w3.org/2000/svg">
<g clip-path="url(#clip0_4006_1469)">
<path d="M44.8326 10.4999L44.7754 10.5189V19.033H36.6994V10.5189L36.6422 10.4999C35.4422 10.2523 34.2614 10.2523 33.0804 10.4999L33.0233 10.5189V30.0995L33.0804 30.1186C33.6709 30.2328 34.2614 30.309 34.8518 30.309C35.4422 30.309 36.0327 30.2518 36.6422 30.1186L36.6994 30.0995V22.1568H44.7754V30.0995L44.8326 30.1186C46.0135 30.3662 47.2134 30.3662 48.3944 30.1186L48.4515 30.0995V10.5189L48.3944 10.4999C47.1944 10.2713 46.0135 10.2713 44.8326 10.4999ZM57.3466 16.0046C53.1181 16.0046 50.6038 18.6711 50.6038 23.1473C50.6038 25.471 51.1372 27.3186 52.2038 28.5948C53.3658 29.9852 55.099 30.69 57.4038 30.69C61.3084 30.69 63.3084 28.3662 63.556 26.0615V26.0043L63.4989 25.9853C62.5084 25.6615 61.5942 25.5853 60.5085 25.7377H60.4703V25.7758C60.2418 27.1472 59.099 27.9662 57.4418 27.9662C55.1181 27.9662 53.9752 26.6901 53.9371 24.0615H63.7655V24.0044C64.0513 21.4139 63.537 19.3187 62.2798 17.8902C61.118 16.6712 59.4228 16.0046 57.3466 16.0046ZM57.3085 18.5378C58.2799 18.5378 59.099 18.8426 59.6514 19.433C60.2227 20.0426 60.5085 20.9568 60.4513 22.0425H53.9371C53.9943 19.814 55.2324 18.5378 57.3085 18.5378ZM66.1465 10.4999L66.0893 10.5189V30.0995L66.1465 30.1186C66.6988 30.2328 67.2512 30.309 67.8226 30.309C68.375 30.309 68.9464 30.2518 69.4988 30.1186L69.5559 30.0995V10.5189L69.4988 10.4999C68.394 10.2523 67.2702 10.2713 66.1465 10.4999ZM79.1938 16.0046C77.7272 16.0046 76.1843 16.5759 74.7177 17.6616L74.5082 16.6331L74.4701 16.6141C73.632 16.3664 72.9463 16.3664 72.1273 16.6141L72.0892 16.6331V36.1184L72.1463 36.1375C72.6987 36.2518 73.251 36.3279 73.8225 36.3279C74.3939 36.3279 74.9462 36.2708 75.4986 36.1375L75.5558 36.1184V29.6042C76.7177 30.3471 77.9558 30.69 79.3462 30.69C83.1934 30.69 85.4982 27.9662 85.4982 23.3758C85.4798 18.7092 83.1934 16.0046 79.1938 16.0046ZM75.4986 19.8711C76.5272 19.1664 77.4796 18.8426 78.5081 18.8426C80.851 18.8426 82.127 20.4616 82.127 23.433C82.127 26.3472 80.8702 27.89 78.47 27.89C77.4414 27.89 76.4701 27.5662 75.4986 26.8805V19.8711ZM100.184 19.5664C99.5934 19.3378 99.0598 19.1474 98.5462 18.9759C95.879 18.0235 94.279 17.4522 94.2414 16.0046C94.2222 15.3378 94.4318 14.7665 94.8886 14.2902C95.5558 13.6046 96.679 13.2426 98.051 13.2426C99.403 13.2426 100.451 13.6046 101.079 14.2712C101.613 14.8426 101.841 15.6236 101.784 16.595V16.6522L101.841 16.6712C103.003 16.8998 104.165 16.8807 105.422 16.595L105.479 16.5759V16.5188C105.555 14.8807 105.06 13.4522 104.05 12.3856C102.793 11.0522 100.774 10.3475 98.2222 10.3284H98.1462C93.403 10.3284 90.5462 12.4427 90.5078 15.9855C90.4886 19.5092 93.727 20.6902 95.6694 21.3758L95.9558 21.4902C96.603 21.7187 97.2126 21.9282 97.7462 22.1187C100.374 23.033 101.955 23.5854 102.013 24.9758C102.032 25.6996 101.822 26.2901 101.384 26.7472C100.755 27.3948 99.651 27.7186 98.1838 27.6995C96.5646 27.6995 95.327 27.2805 94.6222 26.5186C94.1078 25.9472 93.8982 25.2234 93.9742 24.3472V24.2901L93.9174 24.271C92.7366 24.0425 91.5366 24.0615 90.3558 24.3282L90.3174 24.3472V24.4044C90.2222 25.9853 90.6982 27.3948 91.727 28.4805C93.0982 29.9471 95.3462 30.709 98.2414 30.69C101.079 30.69 105.745 29.9281 105.784 24.9758C105.727 21.6806 102.908 20.614 100.184 19.5664ZM114.298 18.8426C116.641 18.8426 117.193 20.3663 117.308 21.2616V21.3187H117.365C118.45 21.4902 119.479 21.4139 120.469 21.1282L120.526 21.1092V21.0521C120.431 19.6806 119.841 18.4426 118.869 17.5474C117.765 16.5378 116.184 15.9855 114.317 15.9855C109.86 15.9855 107.403 18.595 107.403 23.3378C107.403 28.0614 109.841 30.6709 114.26 30.6709C116.165 30.6709 117.765 30.1186 118.889 29.071C119.821 28.1948 120.393 27.0138 120.507 25.7377V25.6806L120.45 25.6615C119.517 25.3377 118.489 25.2806 117.365 25.471H117.326V25.5091C117.021 27.6424 114.945 27.7948 114.317 27.7948C111.917 27.7948 110.793 26.3662 110.793 23.2996C110.774 20.2711 111.898 18.8426 114.298 18.8426ZM128.965 16.0046C124.584 16.0046 122.165 18.614 122.165 23.3568C122.165 28.0805 124.584 30.69 128.965 30.69C133.345 30.69 135.765 28.0805 135.765 23.3568C135.765 18.614 133.345 16.0046 128.965 16.0046ZM132.45 23.3758C132.45 26.4043 131.307 27.871 128.965 27.871C126.621 27.871 125.479 26.4043 125.479 23.3758C125.479 20.2902 126.584 18.8426 128.965 18.8426C131.307 18.8426 132.45 20.3282 132.45 23.3758ZM146.736 16.6331L146.678 16.6522V26.4043C145.573 27.3567 144.564 27.7758 143.402 27.7758C141.764 27.7758 141.059 26.8424 141.059 24.633V16.6331L141.002 16.6141C139.897 16.3474 138.773 16.3474 137.65 16.6141L137.593 16.6331V25.4138C137.593 28.7471 139.383 30.6709 142.526 30.6709C144.202 30.6709 145.669 30.0233 147.249 28.5757L147.573 30.0995L147.612 30.1186C148.412 30.3281 149.249 30.3281 150.049 30.1186L150.107 30.0995V16.6331L150.049 16.6141C148.983 16.3474 147.859 16.3474 146.736 16.6331ZM160.659 27.49L160.64 27.4329L160.583 27.4519C159.249 27.7567 158.469 27.7376 158.012 27.3758C157.63 27.071 157.459 26.5377 157.459 25.6996V19.4521H160.164L160.183 19.395C160.373 18.4806 160.373 17.5474 160.183 16.6141L160.164 16.5569H157.459V12.8618L157.402 12.8427C156.297 12.595 155.173 12.595 154.069 12.8427L154.012 12.8618L154.03 16.5569H152.317L152.297 16.6141C152.088 17.5283 152.088 18.4806 152.297 19.395L152.317 19.4521H154.03L154.049 25.452C154.049 27.1282 154.145 28.8234 155.307 29.7947C155.935 30.309 156.849 30.5757 158.03 30.5757C158.754 30.5757 159.593 30.4805 160.564 30.29H160.602L160.621 30.2518C160.888 29.3566 160.907 28.4234 160.659 27.49Z" fill="black" style="fill:black;fill-opacity:1;"/>
<path d="M2.71905 23.0139L11.976 13.757C13.176 12.576 13.9188 10.9189 13.9188 9.10944C13.9188 7.31899 13.1951 5.68093 12.0331 4.5L2.7762 13.757C1.57622 14.9379 0.833374 16.595 0.833374 18.4045C0.833374 20.214 1.55717 21.833 2.71905 23.0139ZM25.1377 17.6045L15.8807 26.8615C14.6807 28.0424 13.9379 29.6995 13.9379 31.509C13.9379 33.2994 14.6617 34.9375 15.8235 36.1185L25.0806 26.8615C26.2805 25.6806 27.0234 24.0234 27.0234 22.2139C27.0234 20.4045 26.2995 18.7854 25.1377 17.6045ZM25.0806 13.776C26.2805 12.5951 27.0234 10.938 27.0234 9.12848C27.0234 7.33804 26.2995 5.69998 25.1377 4.51905L2.7762 26.8615C1.57622 28.0614 0.833374 29.6995 0.833374 31.5281C0.833374 33.3185 1.55717 34.9566 2.71905 36.1375L25.0806 13.776Z" fill="black" style="fill:black;fill-opacity:1;"/>
</g>
<defs>
<clipPath id="clip0_4006_1469">
<rect width="160" height="40" fill="white" style="fill:white;fill-opacity:1;" transform="translate(0.833374 0.5)"/>
</clipPath>
</defs>
</svg>
