<svg width="142" height="51" viewBox="0 0 142 51" fill="none" xmlns="http://www.w3.org/2000/svg">
<g clip-path="url(#clip0_4006_1454)">
<path d="M74.9501 14.5545C74.9501 16.0399 73.6817 17.2365 72.1067 17.2365C70.5324 17.2365 69.2641 16.0399 69.2641 14.5545C69.2641 13.0692 70.4887 11.8726 72.1067 11.8726C73.7251 11.9139 74.9501 13.1104 74.9501 14.5545ZM63.2285 19.9597C63.2285 20.2072 63.2285 20.6198 63.2285 20.6198C63.2285 20.6198 61.8727 18.9694 58.9861 18.9694C54.2188 18.9694 50.5012 22.3941 50.5012 27.139C50.5012 31.8428 54.175 35.3087 58.9861 35.3087C61.9164 35.3087 63.2285 33.617 63.2285 33.617V34.3185C63.2285 34.6485 63.4909 34.8961 63.8408 34.8961H67.3834V19.382C67.3834 19.382 64.147 19.382 63.8408 19.382C63.4909 19.382 63.2285 19.6709 63.2285 19.9597ZM63.2285 29.9035C62.5725 30.8113 61.2604 31.5952 59.6859 31.5952C56.8867 31.5952 54.7437 29.9448 54.7437 27.139C54.7437 24.3334 56.8867 22.6829 59.6859 22.6829C61.2166 22.6829 62.6162 23.5081 63.2285 24.3746V29.9035ZM70.0077 19.382H74.206V34.8961H70.0077V19.382ZM132.725 18.9694C129.839 18.9694 128.483 20.6198 128.483 20.6198V11.9139H124.285V34.8961C124.285 34.8961 127.521 34.8961 127.827 34.8961C128.177 34.8961 128.439 34.6072 128.439 34.3185V33.617C128.439 33.617 129.795 35.3087 132.682 35.3087C137.449 35.3087 141.167 31.8428 141.167 27.139C141.167 22.4354 137.449 18.9694 132.725 18.9694ZM132.026 31.554C130.408 31.554 129.139 30.77 128.483 29.8623V24.3333C129.139 23.5081 130.539 22.6417 132.026 22.6417C134.825 22.6417 136.968 24.2921 136.968 27.0978C136.968 29.9035 134.825 31.554 132.026 31.554ZM122.098 25.6949V34.9374H117.899V26.1488C117.899 23.5906 117.024 22.5591 114.663 22.5591C113.394 22.5591 112.082 23.178 111.251 24.0858V34.8961H107.052V19.382H110.376C110.726 19.382 110.988 19.6709 110.988 19.9597V20.6198C112.213 19.4233 113.832 18.9694 115.449 18.9694C117.287 18.9694 118.817 19.4646 120.042 20.4548C121.529 21.6102 122.098 23.0955 122.098 25.6949ZM96.8615 18.9694C93.9754 18.9694 92.6195 20.6198 92.6195 20.6198V11.9139H88.4209V34.8961C88.4209 34.8961 91.657 34.8961 91.9629 34.8961C92.3129 34.8961 92.5754 34.6072 92.5754 34.3185V33.617C92.5754 33.617 93.9313 35.3087 96.8181 35.3087C101.585 35.3087 105.303 31.8428 105.303 27.139C105.346 22.4354 101.629 18.9694 96.8615 18.9694ZM96.1622 31.554C94.5438 31.554 93.2754 30.77 92.6195 29.8623V24.3333C93.2754 23.5081 94.6747 22.6417 96.1622 22.6417C98.9608 22.6417 101.104 24.2921 101.104 27.0978C101.104 29.9035 98.9608 31.554 96.1622 31.554ZM84.7907 18.9694C86.0591 18.9694 86.715 19.1757 86.715 19.1757V22.848C86.715 22.848 83.2157 21.7339 81.0289 24.0858V34.9374H76.8303V19.382C76.8303 19.382 80.0671 19.382 80.373 19.382C80.723 19.382 80.9855 19.6709 80.9855 19.9597V20.6198C81.773 19.7534 83.4782 18.9694 84.7907 18.9694ZM41.1854 33.4932C40.9667 32.9981 40.748 32.4617 40.5293 32.0078C40.1795 31.2651 39.8295 30.5637 39.5234 29.9035L39.4797 29.8623C36.4618 23.6732 33.2254 17.4016 29.8139 11.2124L29.6828 10.9649C29.3328 10.346 28.983 9.68578 28.633 9.02562C28.1957 8.28292 27.7583 7.49897 27.0585 6.75628C25.659 5.10585 23.6471 4.19811 21.504 4.19811C19.3172 4.19811 17.3491 5.10585 15.9058 6.67376C15.2497 7.41645 14.7686 8.2004 14.3313 8.9431C13.9814 9.60326 13.6315 10.2634 13.2816 10.8823L13.1504 11.1299C9.78273 17.319 6.50247 23.5906 3.48466 29.7797L3.44093 29.8623C3.13477 30.5225 2.78489 31.2239 2.43499 31.9666C2.21631 32.4205 1.99763 32.9155 1.77895 33.452C1.21038 34.9786 1.03543 36.4227 1.25411 37.9081C1.73521 41.0027 3.92203 43.6021 6.93983 44.7574C8.07698 45.2112 9.25787 45.4175 10.4824 45.4175C10.8324 45.4175 11.2697 45.3763 11.6196 45.335C13.0629 45.17 14.5499 44.7161 15.9933 43.9322C17.7865 42.9832 19.4921 41.6216 21.4166 39.641C23.341 41.6216 25.0904 42.9832 26.8398 43.9322C28.2832 44.7161 29.7702 45.17 31.2135 45.335C31.5634 45.3763 32.0007 45.4175 32.3507 45.4175C33.5752 45.4175 34.7999 45.2112 35.8933 44.7574C38.9548 43.6021 41.0979 40.9614 41.579 37.9081C41.9289 36.464 41.754 35.0198 41.1854 33.4932ZM21.4603 35.6387C19.0985 32.8331 17.5678 30.1923 17.0429 27.9643C16.8242 27.0153 16.7805 26.1901 16.9117 25.4474C16.9992 24.7872 17.2616 24.2095 17.6115 23.7144C18.4425 22.6004 19.8421 21.8989 21.4603 21.8989C23.0785 21.8989 24.5219 22.5591 25.3091 23.7144C25.659 24.2095 25.9214 24.7872 26.0089 25.4474C26.1401 26.1901 26.0964 27.0565 25.8777 27.9643C25.3528 30.1511 23.8221 32.7918 21.4603 35.6387ZM38.9111 37.578C38.605 39.7236 37.0742 41.5803 34.9311 42.4055C33.8814 42.8181 32.7443 42.9419 31.6071 42.8181C30.5137 42.6943 29.4203 42.3642 28.2832 41.7453C26.7087 40.9201 25.1342 39.641 23.2972 37.743C26.1838 34.4009 27.9333 31.3477 28.5894 28.6244C28.8955 27.3454 28.9392 26.1901 28.808 25.1173C28.633 24.0858 28.2394 23.1367 27.6271 22.3115C26.2713 20.4548 23.997 19.382 21.4603 19.382C18.9236 19.382 16.6493 20.4961 15.2935 22.3115C14.6812 23.1367 14.2875 24.0858 14.1126 25.1173C13.9377 26.1901 13.9814 27.3866 14.3313 28.6244C14.9873 31.3477 16.7805 34.4422 19.6234 37.7843C17.8302 39.6823 16.2119 40.9614 14.6374 41.7866C13.5003 42.4055 12.4069 42.7356 11.3135 42.8594C10.1326 42.9832 8.99544 42.8181 7.9895 42.4468C5.84643 41.6216 4.31565 39.7648 4.0095 37.6193C3.87829 36.5878 3.96576 35.5563 4.40312 34.4009C4.53434 33.9883 4.75302 33.5757 4.9717 33.0806C5.27785 32.4205 5.62775 31.719 5.97763 31.0176L6.02137 30.9351C9.03919 24.7872 12.2756 18.5156 15.6433 12.409L15.7746 12.1614C16.1245 11.5425 16.4744 10.8823 16.8242 10.2634C17.1742 9.60326 17.5678 8.98436 18.0489 8.44797C18.9674 7.45771 20.1919 6.92132 21.5478 6.92132C22.9036 6.92132 24.1282 7.45771 25.0467 8.44797C25.5278 8.98436 25.9214 9.60326 26.2713 10.2634C26.6212 10.8823 26.9711 11.5425 27.321 12.1614L27.4522 12.409C30.7762 18.5568 34.0126 24.8284 37.0304 30.9763V31.0176C37.3803 31.6777 37.6865 32.4205 38.0363 33.0806C38.255 33.5757 38.4737 33.9883 38.605 34.4009C38.9548 35.4737 39.0861 36.5052 38.9111 37.578Z" fill="black" style="fill:black;fill-opacity:1;"/>
</g>
<defs>
<clipPath id="clip0_4006_1454">
<rect width="141" height="50" fill="white" style="fill:white;fill-opacity:1;" transform="translate(0.166687 0.5)"/>
</clipPath>
</defs>
</svg>
