<svg width="161" height="41" viewBox="0 0 161 41" fill="none" xmlns="http://www.w3.org/2000/svg">
<g clip-path="url(#clip0_4006_1458)">
<path fill-rule="evenodd" clip-rule="evenodd" d="M28.1745 33.2182C25.7684 35.6244 22.085 35.6244 15.4564 35.6244C8.82911 35.6244 5.14564 35.623 2.73812 33.2182C0.333344 30.812 0.333344 27.1273 0.333344 20.5C0.333344 13.8742 0.333344 10.1879 2.73812 7.78314C5.14564 5.37562 8.82911 5.37562 15.4564 5.37562C22.085 5.37562 25.7684 5.37562 28.1745 7.78314C30.5821 10.1893 30.5821 13.8727 30.5821 20.5C30.5821 27.1273 30.5821 30.812 28.1745 33.2182ZM16.9028 18.5572L7.77316 18.5393L7.77178 20.7874L16.3886 20.8038L15.8812 23.0478L7.77178 23.0313V25.278L15.3738 25.2944H15.3615C15.0673 26.4274 15.8963 27.5507 17.0348 27.5507H18.6132L19.4849 25.2944H15.3738L15.8812 23.0505L21.0482 23.0602L21.8498 20.8135L16.3996 20.8038L16.9097 18.5572L24.2876 18.5215L25.202 16.2844L17.4198 16.3105L16.9028 18.5572ZM16.0902 14.0557L7.77316 14.0378L7.77178 16.2858L17.4184 16.3023L17.505 15.9105C17.7209 14.9645 17.0307 14.0557 16.0902 14.0557Z" fill="black" style="fill:black;fill-opacity:1;"/>
<path d="M54.1037 29.2438H57.97L58.3439 26.9318H59.0472C59.6094 28.6313 61.1318 29.4796 62.7028 29.4796C65.9579 29.4796 67.9504 27.3574 67.9504 22.8297C67.9504 18.8435 66.3095 16.1799 62.7949 16.1799C61.1094 16.1799 59.6094 17.1929 59.0472 18.7012H58.3439L58.5784 15.1641V11.556H54.1037V29.2438ZM58.5784 23.2302V22.4516C58.5784 20.7996 59.4923 19.7867 61.0857 19.7867C62.4683 19.7867 63.4046 20.4006 63.4046 21.98V23.7018C63.4046 24.9994 62.7726 25.8715 61.108 25.8715C59.4463 25.8715 58.5784 24.8571 58.5784 23.2302ZM69.121 22.8521C69.121 26.8384 71.7218 29.4796 75.6802 29.4796C78.9619 29.4796 81.3729 27.7342 81.7025 25.0469H77.4382C77.321 25.7766 76.5718 26.2007 75.5407 26.2007C74.4859 26.2007 73.618 25.5422 73.618 24.5502V23.8902H81.5616C81.7025 23.3962 81.7479 22.7112 81.7479 22.0512C81.7479 18.2309 79.008 16.1785 75.5407 16.1785C71.9325 16.1785 69.121 18.5839 69.121 22.8521ZM73.618 21.2015V20.9433C73.618 20.0936 74.4147 19.4797 75.4932 19.4797C76.5718 19.4797 77.275 20.0936 77.275 20.9433V21.2015H73.618ZM92.1805 16.3431C90.7517 16.3431 89.65 17.1691 89.2981 19.2202H88.5952L88.0563 16.4143H82.1753V20.0225H84.1216V29.2438H88.596V24.0088C88.596 21.3201 90.2597 20.5652 92.1558 20.5652C92.4153 20.5652 92.6732 20.5889 92.9534 20.6126V16.4143C92.6995 16.3627 92.44 16.339 92.1805 16.3431ZM94.1427 16.4143V33.1827H98.6171V30.494L98.3823 26.9556H99.086C99.648 28.4652 101.148 29.4796 102.835 29.4796C106.348 29.4796 107.989 26.8147 107.989 22.8297C107.989 18.3021 105.997 16.1799 102.74 16.1799C101.172 16.1799 99.648 17.0282 99.086 18.7249H98.3823L98.0074 16.4143H94.1427ZM98.6171 22.4279C98.6171 20.8011 99.4848 19.788 101.148 19.788C102.811 19.788 103.443 20.6601 103.443 21.9563V23.678C103.443 25.2589 102.507 25.8715 101.125 25.8715C99.531 25.8715 98.6171 24.8571 98.6171 23.2065V22.4279ZM113.546 25.7542V11.556H109.094V25.8254C109.094 27.8765 109.916 29.2452 112.492 29.2452H116.451V25.7556H113.546V25.7542ZM117.275 25.6343C117.275 27.9937 118.984 29.4796 121.609 29.4796C123.786 29.4796 125.31 28.4652 125.803 26.9556H126.433V29.2438H131.121V25.9412H129.503V20.8261C129.503 18.044 127.911 16.1799 123.833 16.1799C120.085 16.1799 117.907 17.8067 118.046 20.967H122.147C122.076 19.9053 122.709 19.5523 123.623 19.5523C124.489 19.5523 125.051 19.9053 125.051 20.8024V21.6982L121.492 21.934C118.984 22.1 117.273 23.2776 117.273 25.637L117.275 25.6343ZM121.772 25.0231C121.772 24.5278 122.124 24.0562 122.921 24.0088L125.052 23.8664V25.3524C124.7 25.8952 123.997 26.2481 123.131 26.2481C122.193 26.2481 121.773 25.8477 121.773 25.3049L121.772 25.0231ZM132.477 29.2438H136.953V22.3804C136.953 20.8722 137.702 19.8104 139.201 19.8104C140.467 19.8104 141.17 20.5415 141.17 22.1224V29.2438H145.667V20.5415C145.667 17.924 144.239 16.1785 141.685 16.1785C139.717 16.1785 138.311 17.098 137.656 18.7012H136.953L136.414 16.4143H132.477V29.2438ZM147.104 22.8521C147.104 26.8384 149.706 29.4796 153.666 29.4796C156.945 29.4796 159.359 27.7342 159.687 25.0469H155.423C155.306 25.7766 154.557 26.2007 153.525 26.2007C152.47 26.2007 151.604 25.5422 151.604 24.5502V23.8902H159.547C159.687 23.3962 159.734 22.7112 159.734 22.0512C159.734 18.2309 156.992 16.1785 153.525 16.1785C149.917 16.1785 147.104 18.5839 147.104 22.8521ZM151.604 21.2015V20.9433C151.604 20.0936 152.401 19.4797 153.478 19.4797C154.557 19.4797 155.26 20.0936 155.26 20.9433V21.2015H151.604ZM43.769 16.4157H52.5996V29.2438H48.1041V20.021H43.769V29.2425H39.272V20.021H36.9503V16.4157H39.272V15.3106C39.272 15.012 39.2761 14.793 39.2832 14.6548C39.2915 14.5097 39.3152 14.3297 39.3529 14.1135C39.3975 13.8986 39.4674 13.6684 39.558 13.4228C40.0087 12.1768 41.157 11.5573 43.0015 11.5573H46.6502V15.0455H43.769V16.4157ZM48.1264 15.0455V11.556H52.5996V15.0455H48.1264Z" fill="black" style="fill:black;fill-opacity:1;"/>
</g>
<defs>
<clipPath id="clip0_4006_1458">
<rect width="160" height="40" fill="white" style="fill:white;fill-opacity:1;" transform="translate(0.333344 0.5)"/>
</clipPath>
</defs>
</svg>
