<svg width="120" height="52" viewBox="0 0 120 52" fill="none" xmlns="http://www.w3.org/2000/svg">
<path fill-rule="evenodd" clip-rule="evenodd" d="M63.0835 18.3521C62.08 17.508 60.3673 17.0865 57.9445 17.0865H52.48V33.9738H56.5661V28.6812H58.3964C60.618 28.6812 62.2471 28.1922 63.2838 27.2134C64.4516 26.1169 65.0392 24.6568 65.0392 22.834C65.0392 20.9438 64.387 19.4495 63.0835 18.3521ZM58.2949 24.8599H56.5661V20.9077H58.1192C60.0085 20.9077 60.9531 21.5704 60.9531 22.8957C60.9531 24.2039 60.0664 24.8599 58.2949 24.8599ZM72.0313 17.0856H67.7705V33.9729H76.9701V30.1508H72.0313V17.0856ZM85.3177 17.0856L78.625 33.9729H83.2124L84.0896 31.5179H89.905L90.707 33.9729H95.346L88.7005 17.0856H85.3177ZM85.2675 28.0992L87.0227 22.327L88.7506 28.0992H85.2675Z" fill="black" style="fill:black;fill-opacity:1;"/>
<path fill-rule="evenodd" clip-rule="evenodd" d="M97.4742 33.9729H101.736V17.0856H97.4742V33.9729ZM118.282 20.2508C117.744 19.4703 117.052 18.8072 116.25 18.3018C114.964 17.491 113.209 17.0866 110.986 17.0866H105.371V33.9729H111.939C114.312 33.9729 116.217 33.1973 117.654 31.6442C119.092 30.0919 119.809 28.0318 119.809 25.4657C119.809 23.4246 119.3 21.6862 118.282 20.2508ZM111.463 30.1499H109.633V20.9087H111.488C112.792 20.9087 113.793 21.317 114.496 22.1305C115.198 22.9442 115.549 24.0986 115.549 25.5929C115.549 28.6309 114.187 30.1499 111.463 30.1499ZM17.8832 2.90776L4.07274 6.52484L0.266718 20.4132L5.02685 25.3005L0.189819 30.1071L3.77179 44.0562L17.5224 47.8983L22.3604 43.0907L27.1205 47.9771L40.931 44.36L44.7361 30.4708L39.9768 25.5853L44.8139 20.7786L41.2319 6.82864L27.4794 2.98656L22.6433 7.7932L17.8832 2.90776ZM9.40821 9.19636L16.6832 7.29003L19.8645 10.5558L15.2249 15.166L9.40821 9.19636ZM25.3785 10.5995L28.611 7.38782L35.8547 9.41187L29.943 15.2856L25.3785 10.5995ZM4.62527 19.2729L6.62938 11.9581L12.4443 17.9277L7.80568 22.5378L4.62527 19.2729ZM32.6762 18.0929L38.588 12.2172L40.4734 19.5653L37.2418 22.778L32.6762 18.0929ZM17.9591 17.9723L22.5987 13.3622L27.1623 18.0483L22.5237 22.6584L17.9591 17.9723ZM10.5408 25.3442L15.1794 20.7341L19.7458 25.4201L15.1053 30.0303L10.5408 25.3442ZM25.2588 25.4647L29.8974 20.8546L34.462 25.5407L29.8224 30.1508L25.2588 25.4647ZM4.52843 31.3195L7.76201 28.1058L12.3256 32.7929L6.41577 38.6657L4.52843 31.3195ZM17.8395 32.8366L22.4791 28.2265L27.0436 32.9125L22.405 37.5227L17.8395 32.8366ZM32.5566 32.9581L37.1962 28.348L40.3775 31.6128L38.3743 38.9277L32.5566 32.9581ZM9.14899 41.4739L15.0598 35.5983L19.6262 40.2843L16.3927 43.498L9.14899 41.4739ZM25.1392 40.329L29.7778 35.7189L35.5937 41.6894L28.3196 43.5948L25.1392 40.329Z" fill="black" style="fill:black;fill-opacity:1;"/>
</svg>
