<svg width="151" height="37" viewBox="0 0 151 37" fill="none" xmlns="http://www.w3.org/2000/svg">
<g clip-path="url(#clip0_4006_1461)">
<path d="M30.774 12.4807C25.3248 12.4807 21.0671 16.6172 21.0671 22.1549C21.0671 27.6925 25.2172 31.7937 30.774 31.7937C36.3307 31.7937 40.553 27.6217 40.553 22.1195C40.553 16.6526 36.4028 12.4807 30.774 12.4807ZM30.8107 27.8028C27.7076 27.8028 25.4338 25.3928 25.4338 22.1562C25.4338 18.8829 27.6708 16.4742 30.774 16.4742C33.9138 16.4742 36.1863 18.9197 36.1863 22.1562C36.1863 25.3928 33.9138 27.8028 30.8107 27.8028ZM41.743 16.6894H44.4499V31.4355H48.7798V12.8401H41.743V16.6894ZM10.1701 16.4729C12.444 16.4729 14.2482 17.8753 14.933 19.9613H19.5162C18.6856 15.5021 15.0052 12.4807 10.2069 12.4807C4.75774 12.4807 0.5 16.6172 0.5 22.1562C0.5 27.6952 4.65018 31.795 10.2069 31.795C14.8976 31.795 18.6502 28.7737 19.4808 24.2776H14.933C14.2836 26.3636 12.4794 27.8028 10.2055 27.8028C7.06566 27.8028 4.86531 25.3928 4.86531 22.1562C4.86667 18.8829 7.03162 16.4729 10.1701 16.4729ZM124.014 20.3575L120.839 19.8905C119.323 19.6754 118.241 19.1716 118.241 17.9843C118.241 16.6894 119.649 16.0426 121.561 16.0426C123.653 16.0426 124.989 16.9413 125.277 18.4159H129.463C128.994 14.6756 126.107 12.482 121.669 12.482C117.086 12.482 114.055 14.8199 114.055 18.1286C114.055 21.293 116.041 23.1284 120.045 23.7031L123.22 24.1701C124.773 24.3852 125.638 24.9979 125.638 26.1485C125.638 27.6231 124.123 28.2345 122.03 28.2345C119.468 28.2345 118.024 27.1915 117.808 25.6092H113.55C113.948 29.242 116.797 31.795 121.993 31.795C126.721 31.795 129.859 29.6369 129.859 25.932C129.859 22.6233 127.587 20.8968 124.014 20.3575ZM46.6149 5.17973C45.0273 5.17973 43.8358 6.33029 43.8358 7.91248C43.8358 9.49466 45.0258 10.6452 46.6149 10.6452C48.2025 10.6452 49.3939 9.49466 49.3939 7.91248C49.3939 6.33029 48.2025 5.17973 46.6149 5.17973ZM110.158 19.207C110.158 15.1794 107.705 12.482 102.509 12.482C97.6017 12.482 94.859 14.9642 94.3175 18.7767H98.612C98.8287 17.3021 99.983 16.0794 102.437 16.0794C104.638 16.0794 105.721 17.0503 105.721 18.2375C105.721 19.7843 103.736 20.1792 101.282 20.4311C97.9625 20.7906 93.8487 21.9411 93.8487 26.2574C93.8487 29.6028 96.3395 31.7596 100.309 31.7596C103.411 31.7596 105.36 30.4648 106.335 28.4142C106.48 30.2483 107.85 31.4355 109.764 31.4355H112.289V27.5877H110.16V19.207H110.158ZM105.9 23.8827C105.9 26.365 103.736 28.1991 101.101 28.1991C99.4767 28.1991 98.1058 27.5155 98.1058 26.0777C98.1058 24.2436 100.307 23.7398 102.327 23.5246C104.276 23.3449 105.359 22.9133 105.9 22.0854V23.8827ZM82.9153 12.4807C80.4973 12.4807 78.4767 13.4883 77.033 15.178V5H72.7033V31.4355H76.961V28.9902C78.404 30.7521 80.462 31.795 82.9153 31.795C88.1113 31.795 92.045 27.6952 92.045 22.1562C92.045 16.6172 88.0393 12.4807 82.9153 12.4807ZM82.2658 27.8028C79.163 27.8028 76.889 25.3928 76.889 22.1562C76.889 18.9197 79.1982 16.4742 82.301 16.4742C85.4413 16.4742 87.6418 18.8843 87.6418 22.1562C87.6418 25.3928 85.3693 27.8028 82.2658 27.8028ZM62.3469 12.4807C59.5324 12.4807 57.6916 13.6312 56.6091 15.2502V12.8401H52.3146V31.4342H56.6445V21.3284C56.6445 18.4867 58.4486 16.4729 61.1187 16.4729C63.6091 16.4729 65.16 18.2348 65.16 20.7892V31.4355H69.4899V20.4665C69.4912 15.7893 67.0743 12.4807 62.3469 12.4807ZM150.5 21.5448C150.5 16.2223 146.603 12.482 141.37 12.482C135.813 12.482 131.736 16.6539 131.736 22.1562C131.736 27.9471 136.102 31.795 141.442 31.795C145.954 31.795 149.49 29.1331 150.391 25.3574H145.88C145.23 27.0117 143.643 27.9472 141.514 27.9472C138.734 27.9472 136.641 26.2206 136.173 23.1992H150.499V21.5448H150.5ZM136.426 20.1057C137.113 17.5159 139.061 16.2577 141.298 16.2577C143.752 16.2577 145.628 17.6602 146.061 20.1057H136.426Z" fill="black" style="fill:black;fill-opacity:1;"/>
</g>
<defs>
<clipPath id="clip0_4006_1461">
<rect width="150" height="36" fill="white" style="fill:white;fill-opacity:1;" transform="translate(0.5 0.5)"/>
</clipPath>
</defs>
</svg>
