<svg width="121" height="53" viewBox="0 0 121 53" fill="none" xmlns="http://www.w3.org/2000/svg">
<g clip-path="url(#clip0_4006_1465)">
<path d="M0.666687 28.1756C0.666687 19.3758 7.59735 13.1017 17.4539 13.1017C20.3793 13.1017 23.5722 13.6467 25.3634 14.4591V19.9545H25.1629L18.3101 15.0488C17.9565 14.9261 17.2188 14.8468 16.5193 14.8468C11.3352 14.8468 7.67481 19.6764 7.67481 26.3402C7.67481 33.7826 12.2361 39.5781 18.0321 39.5781C18.4246 39.5716 18.8159 39.5307 19.2013 39.456L19.0897 39.4098V27.0521L17.3322 24.9049V24.7048H27.577V24.9049L25.8194 27.0521V41.4252H25.6193L21.1802 40.0568C19.4674 40.9134 16.8195 41.5363 14.439 41.5363C6.27365 41.5363 0.666687 36.1184 0.666687 28.1756ZM32.3162 24.4042L30.247 22.3354V22.1777L37.6115 20.2325H38.0007L38.2773 24.4042H38.5105C40.1907 21.4451 41.6702 20.2325 43.5389 20.2325C44.3176 20.2325 44.9853 20.4662 45.3302 20.7779V27.0852H45.13L41.1939 24.4369C41.0769 24.4123 40.9575 24.401 40.838 24.4032C40.0261 24.4032 38.8578 25.182 38.4686 26.1165V38.888L40.5259 40.7585V40.9586H30.5586V40.7585L32.3162 38.8893V24.4042ZM47.0005 40.9466V40.7907L48.7581 38.8773V24.4042L46.6893 22.3797V22.1777L54.521 20.2307H54.9101V38.8884L56.6681 40.8018V40.9577H47.0005V40.9466ZM48.4787 14.0474C48.4787 12.134 49.7697 10.9656 51.8274 10.9656C53.8851 10.9656 55.1756 12.134 55.1756 14.0474C55.1756 15.9165 53.8966 17.0844 51.8274 17.0844C49.7581 17.0844 48.4787 15.9165 48.4787 14.0474ZM59.5271 40.9466V40.7465L61.2847 38.8773V23.0362H58.5146V22.8804L61.3177 20.4662C62.1745 14.815 65.6455 10.9656 69.8839 10.9656C70.9405 10.9656 72.1891 11.1994 72.6871 11.4774L72.0643 16.5837H71.8639L66.2911 14.1253C65.0785 14.2475 64.0315 16.2277 64.0315 18.0189C64.0315 20.3215 65.7895 21.6009 68.7805 21.6009H73.9645C74.2765 15.6071 77.6245 10.9656 81.7963 10.9656C82.7755 10.9656 83.9437 11.1994 84.4885 11.4774L83.8213 16.5394H83.6209L78.6721 14.2013C77.5375 14.3125 76.6477 15.9921 76.6477 17.8281C76.6477 20.3178 78.2833 21.6087 81.4429 21.6087H93.3577L93.0451 23.8375V38.9603L94.8031 40.7958V40.9517H85.1137V40.7958L86.9047 38.8824V23.0362H80.0851V38.8884L82.4215 40.7585V40.9586H72.1399V40.7585L73.9309 38.8451V23.0362H67.4257V38.8884L69.7615 40.7585V40.9586H59.5262L59.5271 40.9466ZM86.6377 14.0474C86.6377 12.134 87.9169 10.9656 89.9863 10.9656C92.0887 10.9656 93.3793 12.134 93.3793 14.0474C93.3793 15.9165 92.0881 17.0844 89.9863 17.0844C87.9169 17.0844 86.6377 15.9165 86.6377 14.0474ZM105.594 38.8884L107.351 40.7585V40.9586H97.6843V40.7585L99.4423 38.8893V24.412L97.3729 22.3432V22.1427L104.737 20.2293H105.127L105.403 23.8892H105.67C107.806 21.4308 110.108 20.2293 112.678 20.2293C116.149 20.2293 118.563 22.4885 118.563 25.6804V38.8852L120.321 40.7543V40.9544H110.62V40.7543L112.411 38.763V26.9049C112.411 24.9915 111.244 23.8237 109.374 23.8237C108.13 23.8237 106.885 24.3239 105.593 25.3364L105.594 38.8884Z" fill="black" style="fill:black;fill-opacity:1;"/>
</g>
<defs>
<clipPath id="clip0_4006_1465">
<rect width="120" height="52" fill="white" style="fill:white;fill-opacity:1;" transform="translate(0.666687 0.5)"/>
</clipPath>
</defs>
</svg>
